# xmcd
#
# Track frame offsets: 
#        150
#        3345
#        20920
#        44240
#        67835
#        92582
#        111370
#        132060
#        153007
#        173510
#        198742
#        220262
#
# Disc length: 3048 seconds
#
# Revision: 0
# Processed by: cddbd v1.5.2PL0 Copyright (c) Steve Scherf et al.
# Submitted via: ExactAudioCopy v1.0b1
#
DISCID=9f0be60c
DTITLE=Takashi "HOTOKE" Nagai - Fool's Paradise
DYEAR=1996
DGENRE=Blues
TTITLE0=Fool's Paradise(entrance)
TTITLE1=Dog Day Blues
TTITLE2=I Don't Know
TTITLE3=Drifftin' Dream
TTITLE4=Love Yourself(You can't all the things that you want)
TTITLE5=Outlow Blues
TTITLE6=Still, I love you
TTITLE7=Wonderful Weekend
TTITLE8=Night Walk
TTITLE9=Tokyo Love Call
TTITLE10=Louisiana Thunder Storm
TTITLE11=Fool's Paradise(exit)
EXTD=
EXTT0=
EXTT1=
EXTT2=
EXTT3=
EXTT4=
EXTT5=
EXTT6=
EXTT7=
EXTT8=
EXTT9=
EXTT10=
EXTT11=
PLAYORDER=
